<svg width="131" height="137" viewBox="0 0 131 137" fill="none" xmlns="http://www.w3.org/2000/svg">
<path d="M64.7181 19.2616C68.9731 19.2616 72.4225 15.8122 72.4225 11.5572C72.4225 7.30217 68.9731 3.85278 64.7181 3.85278C60.4631 3.85278 57.0137 7.30217 57.0137 11.5572C57.0137 15.8122 60.4631 19.2616 64.7181 19.2616Z" stroke="white" stroke-width="3" stroke-miterlimit="10"/>
<path d="M53.0415 26.0022C54.2248 23.9523 55.9269 22.25 57.9766 21.0664C60.0264 19.8829 62.3516 19.2598 64.7185 19.2598C67.0855 19.2598 69.4107 19.8829 71.4604 21.0664C73.5102 22.25 75.2123 23.9523 76.3955 26.0022" stroke="white" stroke-width="3" stroke-linecap="round" stroke-linejoin="round"/>
<path d="M115.592 65.8578C119.847 65.8578 123.296 62.4084 123.296 58.1534C123.296 53.8984 119.847 50.449 115.592 50.449C111.337 50.449 107.887 53.8984 107.887 58.1534C107.887 62.4084 111.337 65.8578 115.592 65.8578Z" stroke="white" stroke-width="3" stroke-miterlimit="10"/>
<path d="M103.915 72.5986C105.098 70.5487 106.8 68.8464 108.85 67.6629C110.899 66.4793 113.225 65.8562 115.592 65.8562C117.958 65.8562 120.284 66.4793 122.333 67.6629C124.383 68.8464 126.085 70.5487 127.269 72.5986" stroke="white" stroke-width="3" stroke-linecap="round" stroke-linejoin="round"/>
<path d="M15.41 66.1039C19.665 66.1039 23.1144 62.6545 23.1144 58.3995C23.1144 54.1445 19.665 50.6951 15.41 50.6951C11.155 50.6951 7.70557 54.1445 7.70557 58.3995C7.70557 62.6545 11.155 66.1039 15.41 66.1039Z" stroke="white" stroke-width="3" stroke-miterlimit="10"/>
<path d="M3.73291 72.8455C4.91618 70.7955 6.61826 69.0932 8.66802 67.9097C10.7178 66.7261 13.043 66.103 15.4099 66.103C17.7769 66.103 20.1021 66.7261 22.1518 67.9097C24.2016 69.0932 25.9037 70.7955 27.087 72.8455" stroke="white" stroke-width="3" stroke-linecap="round" stroke-linejoin="round"/>
<path d="M64.7054 124.655C68.9604 124.655 72.4098 121.206 72.4098 116.951C72.4098 112.696 68.9604 109.246 64.7054 109.246C60.4504 109.246 57.001 112.696 57.001 116.951C57.001 121.206 60.4504 124.655 64.7054 124.655Z" stroke="white" stroke-width="3" stroke-miterlimit="10"/>
<path d="M53.0283 131.397C54.2116 129.347 55.9137 127.645 57.9634 126.461C60.0132 125.278 62.3384 124.655 64.7053 124.655C67.0723 124.655 69.3975 125.278 71.4473 126.461C73.497 127.645 75.1991 129.347 76.3824 131.397" stroke="white" stroke-width="3" stroke-linecap="round" stroke-linejoin="round"/>
<path d="M15.1899 38.4349C22.0212 26.048 29.9952 20.0935 41.1598 13.979" stroke="white" stroke-width="3" stroke-linecap="round"/>
<path d="M35.2792 112.8C23.2699 105.325 17.7442 97.0482 12.2269 85.5767" stroke="white" stroke-width="3" stroke-linecap="round"/>
<path d="M118.266 85.4265C112.962 98.5401 105.755 105.404 95.4004 112.807" stroke="white" stroke-width="3" stroke-linecap="round"/>
<path d="M88.5326 13.9852C101.775 19.8467 108.238 27.1517 114.938 37.5007" stroke="white" stroke-width="3" stroke-linecap="round"/>
</svg>
