<svg width="121" height="126" viewBox="0 0 121 126" fill="none" xmlns="http://www.w3.org/2000/svg">
<path d="M59.5845 17.7337C63.502 17.7337 66.6778 14.5579 66.6778 10.6404C66.6778 6.72289 63.502 3.54712 59.5845 3.54712C55.667 3.54712 52.4912 6.72289 52.4912 10.6404C52.4912 14.5579 55.667 17.7337 59.5845 17.7337Z" stroke="#4B369D" stroke-width="2.5" stroke-miterlimit="10"/>
<path d="M48.834 23.9395C49.9234 22.0522 51.4905 20.4849 53.3776 19.3953C55.2648 18.3056 57.4056 17.7319 59.5847 17.7319C61.7639 17.7319 63.9047 18.3056 65.7918 19.3953C67.679 20.4849 69.2461 22.0522 70.3355 23.9395" stroke="#4B369D" stroke-width="2.5" stroke-linecap="round" stroke-linejoin="round"/>
<path d="M106.422 60.6336C110.34 60.6336 113.516 57.4578 113.516 53.5403C113.516 49.6228 110.34 46.447 106.422 46.447C102.505 46.447 99.3291 49.6228 99.3291 53.5403C99.3291 57.4578 102.505 60.6336 106.422 60.6336Z" stroke="#4B369D" stroke-width="2.5" stroke-miterlimit="10"/>
<path d="M95.6719 66.8397C96.7613 64.9524 98.3283 63.3851 100.216 62.2954C102.103 61.2058 104.243 60.6321 106.423 60.6321C108.602 60.6321 110.743 61.2058 112.63 62.2954C114.517 63.3851 116.084 64.9524 117.173 66.8397" stroke="#4B369D" stroke-width="2.5" stroke-linecap="round" stroke-linejoin="round"/>
<path d="M14.1875 60.8601C18.105 60.8601 21.2808 57.6844 21.2808 53.7669C21.2808 49.8494 18.105 46.6736 14.1875 46.6736C10.27 46.6736 7.09424 49.8494 7.09424 53.7669C7.09424 57.6844 10.27 60.8601 14.1875 60.8601Z" stroke="#4B369D" stroke-width="2.5" stroke-miterlimit="10"/>
<path d="M3.43652 67.067C4.52593 65.1797 6.09299 63.6124 7.98016 62.5227C9.86732 61.433 12.0081 60.8594 14.1873 60.8594C16.3664 60.8594 18.5072 61.433 20.3944 62.5227C22.2815 63.6124 23.8486 65.1797 24.938 67.067" stroke="#4B369D" stroke-width="2.5" stroke-linecap="round" stroke-linejoin="round"/>
<path d="M59.5723 114.767C63.4898 114.767 66.6656 111.591 66.6656 107.674C66.6656 103.756 63.4898 100.58 59.5723 100.58C55.6548 100.58 52.479 103.756 52.479 107.674C52.479 111.591 55.6548 114.767 59.5723 114.767Z" stroke="#4B369D" stroke-width="2.5" stroke-miterlimit="10"/>
<path d="M48.8218 120.974C49.9112 119.086 51.4782 117.519 53.3654 116.429C55.2526 115.34 57.3933 114.766 59.5725 114.766C61.7517 114.766 63.8925 115.34 65.7796 116.429C67.6668 117.519 69.2339 119.086 70.3233 120.974" stroke="#4B369D" stroke-width="2.5" stroke-linecap="round" stroke-linejoin="round"/>
<path d="M13.985 35.386C20.2745 23.9818 27.6159 18.4996 37.8949 12.8701" stroke="#4B369D" stroke-width="2.5" stroke-linecap="round"/>
<path d="M32.4809 103.852C21.4242 96.9702 16.3368 89.3499 11.2572 78.7884" stroke="#4B369D" stroke-width="2.5" stroke-linecap="round"/>
<path d="M108.884 78.6501C104.001 90.7235 97.366 97.0428 87.8324 103.859" stroke="#4B369D" stroke-width="2.5" stroke-linecap="round"/>
<path d="M81.5095 12.8756C93.7014 18.2722 99.6522 24.9977 105.82 34.5257" stroke="#4B369D" stroke-width="2.5" stroke-linecap="round"/>
</svg>
