<svg width="172" height="172" viewBox="0 0 172 172" fill="none" xmlns="http://www.w3.org/2000/svg">
<rect width="171.549" height="171.549" rx="41.0445" fill="#F8F8FF"/>
<rect width="171.549" height="171.549" rx="41.0445" fill="url(#paint0_linear_1134_9701)"/>
<path d="M85.5845 40.7337C89.502 40.7337 92.6778 37.5579 92.6778 33.6404C92.6778 29.7229 89.502 26.5471 85.5845 26.5471C81.667 26.5471 78.4912 29.7229 78.4912 33.6404C78.4912 37.5579 81.667 40.7337 85.5845 40.7337Z" stroke="#4B369D" stroke-width="2.5" stroke-miterlimit="10"/>
<path d="M74.834 46.9395C75.9234 45.0522 77.4905 43.4849 79.3776 42.3953C81.2648 41.3056 83.4056 40.7319 85.5847 40.7319C87.7639 40.7319 89.9047 41.3056 91.7918 42.3953C93.679 43.4849 95.2461 45.0522 96.3355 46.9395" stroke="#4B369D" stroke-width="2.5" stroke-linecap="round" stroke-linejoin="round"/>
<path d="M132.422 83.6336C136.34 83.6336 139.516 80.4578 139.516 76.5403C139.516 72.6228 136.34 69.447 132.422 69.447C128.505 69.447 125.329 72.6228 125.329 76.5403C125.329 80.4578 128.505 83.6336 132.422 83.6336Z" stroke="#4B369D" stroke-width="2.5" stroke-miterlimit="10"/>
<path d="M121.672 89.8397C122.761 87.9524 124.328 86.3851 126.216 85.2954C128.103 84.2058 130.243 83.6321 132.423 83.6321C134.602 83.6321 136.743 84.2058 138.63 85.2954C140.517 86.3851 142.084 87.9524 143.173 89.8397" stroke="#4B369D" stroke-width="2.5" stroke-linecap="round" stroke-linejoin="round"/>
<path d="M40.1875 83.8601C44.105 83.8601 47.2808 80.6844 47.2808 76.7669C47.2808 72.8494 44.105 69.6736 40.1875 69.6736C36.27 69.6736 33.0942 72.8494 33.0942 76.7669C33.0942 80.6844 36.27 83.8601 40.1875 83.8601Z" stroke="#4B369D" stroke-width="2.5" stroke-miterlimit="10"/>
<path d="M29.4365 90.067C30.5259 88.1797 32.093 86.6124 33.9802 85.5227C35.8673 84.433 38.0081 83.8594 40.1873 83.8594C42.3664 83.8594 44.5072 84.433 46.3944 85.5227C48.2815 86.6124 49.8486 88.1797 50.938 90.067" stroke="#4B369D" stroke-width="2.5" stroke-linecap="round" stroke-linejoin="round"/>
<path d="M85.5723 137.767C89.4898 137.767 92.6656 134.591 92.6656 130.674C92.6656 126.756 89.4898 123.58 85.5723 123.58C81.6548 123.58 78.479 126.756 78.479 130.674C78.479 134.591 81.6548 137.767 85.5723 137.767Z" stroke="#4B369D" stroke-width="2.5" stroke-miterlimit="10"/>
<path d="M74.8218 143.974C75.9112 142.086 77.4782 140.519 79.3654 139.429C81.2526 138.34 83.3933 137.766 85.5725 137.766C87.7517 137.766 89.8925 138.34 91.7796 139.429C93.6668 140.519 95.2339 142.086 96.3233 143.974" stroke="#4B369D" stroke-width="2.5" stroke-linecap="round" stroke-linejoin="round"/>
<path d="M39.985 58.386C46.2745 46.9818 53.6159 41.4996 63.8949 35.8701" stroke="#4B369D" stroke-width="2.5" stroke-linecap="round"/>
<path d="M58.4809 126.852C47.4242 119.97 42.3368 112.35 37.2572 101.788" stroke="#4B369D" stroke-width="2.5" stroke-linecap="round"/>
<path d="M134.884 101.65C130.001 113.724 123.366 120.043 113.832 126.859" stroke="#4B369D" stroke-width="2.5" stroke-linecap="round"/>
<path d="M107.51 35.8756C119.701 41.2722 125.652 47.9977 131.82 57.5257" stroke="#4B369D" stroke-width="2.5" stroke-linecap="round"/>
<defs>
<linearGradient id="paint0_linear_1134_9701" x1="171.549" y1="171.549" x2="0" y2="0" gradientUnits="userSpaceOnUse">
<stop stop-color="#BDD0FC" stop-opacity="0.15"/>
<stop offset="1" stop-color="#90A4EC" stop-opacity="0.01"/>
</linearGradient>
</defs>
</svg>
