<?xml version="1.0" encoding="UTF-8" standalone="no"?>
<svg
   width="172"
   height="172"
   viewBox="0 0 172 172"
   fill="none"
   version="1.1"
   id="svg107"
   sodipodi:docname="tadashi_logo_white_transparent.svg"
   inkscape:version="1.1.2 (b8e25be833, 2022-02-05)"
   xmlns:inkscape="http://www.inkscape.org/namespaces/inkscape"
   xmlns:sodipodi="http://sodipodi.sourceforge.net/DTD/sodipodi-0.dtd"
   xmlns="http://www.w3.org/2000/svg"
   xmlns:svg="http://www.w3.org/2000/svg">
  <defs
     id="defs111" />
  <sodipodi:namedview
     id="namedview109"
     pagecolor="#505050"
     bordercolor="#eeeeee"
     borderopacity="1"
     inkscape:pageshadow="0"
     inkscape:pageopacity="0"
     inkscape:pagecheckerboard="0"
     showgrid="false"
     inkscape:zoom="4.8017484"
     inkscape:cx="81.532802"
     inkscape:cy="96.006697"
     inkscape:window-width="2560"
     inkscape:window-height="1377"
     inkscape:window-x="-8"
     inkscape:window-y="-8"
     inkscape:window-maximized="1"
     inkscape:current-layer="svg107" />
  <path
     d="m 121.561,74.5143 c -0.166,-0.4782 -0.466,-0.8907 -0.861,-1.1822 -0.394,-0.2914 -0.863,-0.4476 -1.344,-0.4476 h -0.006 c -42.192105,-0.124154 -44.271267,-0.230947 -65.7964,0 -0.6233,0 -1.2211,0.2624 -1.6618,0.7296 -0.4407,0.4672 -0.6883,1.1008 -0.6883,1.7614 v 79.7135 c 0,0.661 0.2476,1.295 0.6883,1.762 0.4407,0.467 1.0385,0.73 1.6618,0.73 h 56.4024 c 3.738,-0.005 7.322,-1.581 9.966,-4.383 2.643,-2.802 4.13,-6.601 4.134,-10.564 v -17.437 h 11.751 c 0.378,0 0.751,-0.097 1.087,-0.283 0.336,-0.185 0.624,-0.454 0.84,-0.784 0.217,-0.329 0.355,-0.708 0.404,-1.107 0.048,-0.398 0.005,-0.802 -0.126,-1.179 z M 55.9037,104.326 c -37.269133,-69.550667 -18.634567,-34.775333 0,0 z M 82.3524,83.561522 c -37.269133,-58.553867 -18.634567,-29.276933 0,0 z M 55.9037,77.8666 c -37.269133,-51.911067 -18.634567,-25.955533 0,0 z m 65.8023,42.3484 c -0.623,0 -1.221,0.262 -1.662,0.729 -0.44,0.467 -0.688,1.101 -0.688,1.762 v 7.388 c -1.968,-0.218 -3.866,-0.894 -5.559,-1.98 -1.693,-1.085 -3.14,-2.553 -4.236,-4.299 l -3.911,2.764 c 1.525,2.429 3.552,4.459 5.926,5.935 2.375,1.476 5.035,2.36 7.78,2.585 v 7.535 c -0.003,2.642 -0.994,5.175 -2.756,7.043 -1.763,1.868 -4.152,2.918 -6.644,2.921 H 55.9037 V 77.8666 c 7.236438,-0.0526 33.795151,0 61.8133,0 l 14.718,42.3484 z"
     fill="#ffffff"
     id="path63"
     sodipodi:nodetypes="ccsccsssssccccscccccccccccscscccccccccccccs" />
  <path
     d="M84.1049 31.3346H88.805V38.8078H84.1049V31.3346Z"
     fill="white"
     id="path67" />
  <path
     d="M84.1049 21.3704H88.805V26.3525H84.1049V21.3704Z"
     fill="white"
     id="path69" />
  <path
     d="M9.70056 86.936H16.7508V91.9181H9.70056V86.936Z"
     fill="white"
     id="path71" />
  <path
     d="M21.451 86.936H40.2517V91.9181H21.451V86.936Z"
     fill="white"
     id="path73" />
  <path
     d="M2 66.6063L2.96878 61.7342L7.91913 62.8402L6.95035 67.7123L2 66.6063Z"
     fill="white"
     id="path75" />
  <path
     d="M11.9026 68.8359L12.8714 63.9638L40.0992 70.0468L39.1304 74.9189L11.9026 68.8359Z"
     fill="white"
     id="path77" />
  <path
     d="M48.4777 19.8424L52.6796 17.6154L55.0286 22.5953L50.8267 24.8223L48.4777 19.8424Z"
     fill="white"
     id="path79" />
  <path
     d="M53.1729 29.8043L57.3748 27.5773L64.4217 42.5166L60.2198 44.7436L53.1729 29.8043Z"
     fill="white"
     id="path81" />
  <path
     d="M23.8092 39.5351L26.5549 35.4886L49.6693 53.1107L46.9236 57.1572L23.8092 39.5351Z"
     fill="white"
     id="path83" />
  <path
     d="M15.1378 32.935L17.8835 28.8885L22.9686 32.7653L20.2229 36.8118L15.1378 32.935Z"
     fill="white"
     id="path85" />
  <path
     d="M157.409 86.936H164.459V91.9181H157.409V86.936Z"
     fill="white"
     id="path87" />
  <path
     d="M133.908 86.936H152.709V91.9181H133.908V86.936Z"
     fill="white"
     id="path89" />
  <path
     d="M162.559 56.6016L167.256 54.6109L169 59.2343L164.302 61.225L162.559 56.6016Z"
     fill="white"
     id="path91" />
  <path
     d="M132.02 69.5387L157.858 58.5895L159.602 63.2129L133.764 74.1621L132.02 69.5387Z"
     fill="white"
     id="path93" />
  <path
     d="M116.583 19.9799L118.932 15L123.134 17.227L120.785 22.2069L116.583 19.9799Z"
     fill="white"
     id="path95" />
  <path
     d="M107.18 39.8999L114.227 24.9606L118.429 27.1876L111.382 42.127L107.18 39.8999Z"
     fill="white"
     id="path97" />
  <path
     d="M124.317 54.8194L141.568 38.7246L144.675 42.4662L127.424 58.561L124.317 54.8194Z"
     fill="white"
     id="path99" />
  <path
     d="M145.244 35.7633L149.946 31.3766L153.053 35.1181L148.351 39.5049L145.244 35.7633Z"
     fill="white"
     id="path101" />
  <path
     d="M102.905 104.023C102.905 105.674 102.286 107.258 101.185 108.426C100.083 109.594 98.5884 110.25 97.0302 110.25C95.472 110.25 93.9776 109.594 92.8758 108.426C91.774 107.258 91.155 105.674 91.155 104.023V100.286H86.4548V104.023C86.4548 106.996 87.569 109.847 89.5523 111.949C91.5356 114.052 94.2255 115.233 97.0302 115.233C99.835 115.233 102.525 114.052 104.508 111.949C106.491 109.847 107.606 106.996 107.606 104.023V100.286H102.905V104.023Z"
     fill="#ffffff"
     id="path103" />
</svg>
