<svg width="172" height="172" viewBox="0 0 172 172" fill="none" xmlns="http://www.w3.org/2000/svg">
<rect width="171.549" height="171.549" rx="41.0445" fill="#4B369D"/>
<path d="M121.561 74.5143C121.395 74.0361 121.095 73.6236 120.7 73.3321C120.306 73.0407 119.837 72.8845 119.356 72.8845H119.35C120.324 71.5107 121.019 69.9379 121.392 68.2651C121.765 66.5923 121.806 64.8559 121.514 63.1652C121.222 61.4745 120.603 59.8663 119.696 58.4419C118.788 57.0174 117.612 55.8076 116.242 54.8888C117.102 52.4907 117.242 49.8697 116.644 47.3839C116.045 44.8982 114.737 42.669 112.898 41.001C111.059 39.333 108.779 38.3076 106.37 38.0648C103.961 37.8221 101.539 38.3738 99.437 39.6447C98.3552 36.9435 96.5474 34.6395 94.2388 33.0198C91.9302 31.4002 89.223 30.5365 86.4545 30.5365C83.686 30.5365 80.9788 31.4002 78.6702 33.0198C76.3616 34.6395 74.5538 36.9435 73.472 39.6447C71.3695 38.3762 68.9489 37.8263 66.5406 38.0701C64.1323 38.3138 61.8536 39.3394 60.0156 41.0067C58.1775 42.6741 56.8697 44.902 56.2704 47.3865C55.6712 49.871 55.8099 52.4909 56.6674 54.8888C54.6319 56.2574 53.042 58.2557 52.1129 60.6134C51.1838 62.9711 50.9603 65.5744 51.4726 68.0711L56.0655 67.0124C55.6994 65.2296 55.9602 63.3663 56.7991 61.773C57.6379 60.1796 58.9969 58.9659 60.6206 58.3601C60.9593 58.2343 61.2664 58.028 61.5182 57.757C61.77 57.4859 61.9599 57.1573 62.0734 56.7964C62.1868 56.4355 62.2208 56.0518 62.1726 55.6748C62.1245 55.2978 61.9955 54.9376 61.7956 54.6216C60.8382 53.108 60.4358 51.2757 60.6642 49.4695C60.8925 47.6634 61.7359 46.008 63.0355 44.8151C64.335 43.6221 66.0012 42.9739 67.7203 42.9924C69.4394 43.0109 71.0928 43.6948 72.3693 44.9155C72.3625 45.1048 72.3557 45.2941 72.3557 45.4838C72.3524 47.5414 72.7525 49.5773 73.5308 51.4623L77.8379 49.4676C77.319 48.2113 77.0522 46.8543 77.0544 45.4828C77.0553 45.084 77.0785 44.6856 77.1238 44.2896L77.1252 44.2818C77.4014 41.8649 78.5029 39.6389 80.2218 38.0242C81.9407 36.4095 84.158 35.5179 86.4548 35.5179C88.7516 35.5179 90.9688 36.4095 92.6878 38.0242C94.4067 39.6389 95.5082 41.8649 95.7843 44.2818C95.8387 44.762 96.0238 45.215 96.317 45.5856C96.6101 45.9562 96.9987 46.2283 97.4353 46.3687C97.872 46.5091 98.3377 46.5118 98.7757 46.3764C99.2137 46.241 99.6051 45.9733 99.902 45.6061C101.073 44.1645 102.718 43.2503 104.502 43.0498C106.287 42.8492 108.076 43.3775 109.506 44.5269C110.936 45.6763 111.898 47.3603 112.197 49.2358C112.496 51.1112 112.109 53.037 111.115 54.6207C110.916 54.9366 110.787 55.2969 110.738 55.6739C110.69 56.0509 110.724 56.4345 110.838 56.7955C110.951 57.1564 111.141 57.485 111.393 57.756C111.645 58.0271 111.952 58.2334 112.29 58.3591C113.862 58.9431 115.187 60.0975 116.032 61.618C116.877 63.1384 117.187 64.9269 116.908 66.6665C116.628 68.4062 115.777 69.9848 114.504 71.1229C113.232 72.2609 111.621 72.885 109.956 72.8845H87.1075C86.721 72.2455 86.4986 71.5106 86.4622 70.7525C86.4259 69.9945 86.5769 69.2395 86.9004 68.5622C87.2239 67.885 87.7085 67.3091 88.3065 66.8914C88.9044 66.4737 89.5949 66.2287 90.3095 66.1807L90.0158 61.2083C88.7185 61.2942 87.4552 61.6834 86.3165 62.348C85.1779 63.0126 84.1922 63.9361 83.43 65.0522C82.6679 66.1683 82.1483 67.4494 81.9084 68.8036C81.6686 70.1577 81.7145 71.5514 82.0428 72.8845H53.5536C52.9303 72.8845 52.3325 73.1469 51.8918 73.6141C51.4511 74.0813 51.2035 74.7149 51.2035 75.3755V155.089C51.2035 155.75 51.4511 156.384 51.8918 156.851C52.3325 157.318 52.9303 157.581 53.5536 157.581H109.956C113.694 157.576 117.278 156 119.922 153.198C122.565 150.396 124.052 146.597 124.056 142.634V125.197H135.807C136.185 125.197 136.558 125.1 136.894 124.914C137.23 124.729 137.518 124.46 137.734 124.13C137.951 123.801 138.089 123.422 138.138 123.023C138.186 122.625 138.143 122.221 138.012 121.844L121.561 74.5143ZM55.9037 97.7951H65.6565C62.8522 100.644 59.5353 102.865 55.9037 104.326V97.7951ZM69.6346 92.813H55.9037V87.8308H72.2444C71.5205 89.5729 70.6469 91.2406 69.6346 92.813ZM74.6121 77.8666C74.4861 79.5466 74.2307 81.2129 73.8483 82.8487H55.9037V77.8666H74.6121ZM121.706 120.215C121.083 120.215 120.485 120.477 120.044 120.944C119.604 121.411 119.356 122.045 119.356 122.706V130.094C117.388 129.876 115.49 129.2 113.797 128.114C112.104 127.029 110.657 125.561 109.561 123.815L105.65 126.579C107.175 129.008 109.202 131.038 111.576 132.514C113.951 133.99 116.611 134.874 119.356 135.099V142.634C119.353 145.276 118.362 147.809 116.6 149.677C114.837 151.545 112.448 152.595 109.956 152.598H55.9037V109.596C62.3502 107.392 68.0261 103.191 72.1996 97.5358C76.3731 91.8804 78.8529 85.0297 79.3193 77.8666H117.717L132.435 120.215H121.706Z" fill="white"/>
<rect x="46.6523" y="27.7534" width="78.7711" height="45.0615" fill="#4B369D"/>
<path d="M84.1049 31.3346H88.805V38.8078H84.1049V31.3346Z" fill="white"/>
<path d="M84.1049 21.3704H88.805V26.3525H84.1049V21.3704Z" fill="white"/>
<path d="M9.70056 86.936H16.7508V91.9181H9.70056V86.936Z" fill="white"/>
<path d="M21.451 86.936H40.2517V91.9181H21.451V86.936Z" fill="white"/>
<path d="M2 66.6063L2.96878 61.7342L7.91913 62.8402L6.95035 67.7123L2 66.6063Z" fill="white"/>
<path d="M11.9026 68.8359L12.8714 63.9638L40.0992 70.0468L39.1304 74.9189L11.9026 68.8359Z" fill="white"/>
<path d="M48.4777 19.8424L52.6796 17.6154L55.0286 22.5953L50.8267 24.8223L48.4777 19.8424Z" fill="white"/>
<path d="M53.1729 29.8043L57.3748 27.5773L64.4217 42.5166L60.2198 44.7436L53.1729 29.8043Z" fill="white"/>
<path d="M23.8092 39.5351L26.5549 35.4886L49.6693 53.1107L46.9236 57.1572L23.8092 39.5351Z" fill="white"/>
<path d="M15.1378 32.935L17.8835 28.8885L22.9686 32.7653L20.2229 36.8118L15.1378 32.935Z" fill="white"/>
<path d="M157.409 86.936H164.459V91.9181H157.409V86.936Z" fill="white"/>
<path d="M133.908 86.936H152.709V91.9181H133.908V86.936Z" fill="white"/>
<path d="M162.559 56.6016L167.256 54.6109L169 59.2343L164.302 61.225L162.559 56.6016Z" fill="white"/>
<path d="M132.02 69.5387L157.858 58.5895L159.602 63.2129L133.764 74.1621L132.02 69.5387Z" fill="white"/>
<path d="M116.583 19.9799L118.932 15L123.134 17.227L120.785 22.2069L116.583 19.9799Z" fill="white"/>
<path d="M107.18 39.8999L114.227 24.9606L118.429 27.1876L111.382 42.127L107.18 39.8999Z" fill="white"/>
<path d="M124.317 54.8194L141.568 38.7246L144.675 42.4662L127.424 58.561L124.317 54.8194Z" fill="white"/>
<path d="M145.244 35.7633L149.946 31.3766L153.053 35.1181L148.351 39.5049L145.244 35.7633Z" fill="white"/>
<path d="M102.905 104.023C102.905 105.674 102.286 107.258 101.185 108.426C100.083 109.594 98.5884 110.25 97.0302 110.25C95.472 110.25 93.9776 109.594 92.8758 108.426C91.774 107.258 91.155 105.674 91.155 104.023V100.286H86.4548V104.023C86.4548 106.996 87.569 109.847 89.5523 111.949C91.5356 114.052 94.2255 115.233 97.0302 115.233C99.835 115.233 102.525 114.052 104.508 111.949C106.491 109.847 107.606 106.996 107.606 104.023V100.286H102.905V104.023Z" fill="white"/>
<rect x="55.9047" y="77.8512" width="25.0067" height="33.1334" fill="#4B369D"/>
</svg>
