<?xml version="1.0" encoding="iso-8859-1"?>
<!-- Generator: Adobe Illustrator 19.0.0, SVG Export Plug-In . SVG Version: 6.00 Build 0)  -->
<svg version="1.1" id="Layer_1" xmlns="http://www.w3.org/2000/svg" xmlns:xlink="http://www.w3.org/1999/xlink" x="0px" y="0px"
	 viewBox="0 0 512.853 512.853" style="enable-background:new 0 0 512.853 512.853;" xml:space="preserve">
<g transform="translate(1 1)">
	<g>
		<g>
			<path d="M479,434.627l31.573-46.933c1.707-2.56,1.707-5.973,0-8.533c-1.707-2.56-4.267-4.267-7.68-4.267h-51.2v-33.076
				c16.793-31.632,25.6-67.14,25.6-103.458c0-122.027-99.84-221.867-221.867-221.867S33.56,116.333,33.56,238.36
				c0,36.318,8.807,71.826,25.6,103.458v33.076H7.96c-3.413,0-5.973,1.707-6.827,5.12c-1.707,2.56-1.707,5.973,0,8.533l30.72,46.08
				L0.28,481.56c-1.707,2.56-1.707,5.973,0,8.533s4.267,4.267,7.68,4.267h76.8c5.12,0,8.533-3.413,8.533-8.533v-34.133H417.56
				v34.133c0,5.12,3.413,8.533,8.533,8.533h76.8c3.413,0,5.12-2.56,6.827-5.12s1.707-5.973,0-8.533L479,434.627z M84.76,434.627
				h-8.533v-51.2v-34.133h53.76h57.173h136.533h57.173h53.76v34.133v51.2h-8.533H84.76z M212.76,178.627
				c0-23.893,18.773-42.667,42.667-42.667c23.893,0,42.667,18.773,42.667,42.667c0,23.893-18.773,42.667-42.667,42.667
				C231.533,221.293,212.76,202.52,212.76,178.627z M315.16,332.227H195.693v-34.133c0-33.28,26.453-59.733,59.733-59.733
				c33.28,0,59.733,26.453,59.733,59.733V332.227z M288.361,228.612c16.205-10.62,26.799-28.932,26.799-49.985
				c0-33.28-26.453-59.733-59.733-59.733c-33.28,0-59.733,26.453-59.733,59.733c0,21.054,10.594,39.365,26.799,49.985
				c-26.014,12.25-43.866,38.63-43.866,69.481v34.133h-44.373c-21.333-26.453-32.427-59.733-31.573-93.867
				c0-84.48,69.12-153.6,153.6-153.6s153.6,69.12,153.6,153.6c0,34.133-11.947,67.413-32.427,93.867h-45.227v-34.133
				C332.227,267.242,314.375,240.862,288.361,228.612z M255.427,33.56c112.64,0,204.8,92.16,205.653,204.8
				c0,32.427-8.533,64.853-23.04,93.867h-40.202c18.302-27.485,28.255-60.363,28.255-93.867c0-93.867-76.8-170.667-170.667-170.667
				S84.76,144.493,84.76,238.36c0,33.504,9.954,66.382,28.255,93.867H73.667c-15.36-28.16-23.04-60.587-23.04-93.867
				C50.627,125.72,142.787,33.56,255.427,33.56z M76.227,477.293H24.173l25.6-38.4c1.707-2.56,1.707-6.827,0-9.387l-25.6-37.547
				H59.16v51.2c0,5.12,3.413,8.533,8.533,8.533h8.533V477.293z M434.627,477.293v-24.747h8.533c5.12,0,8.533-3.413,8.533-8.533
				v-0.853v-50.347h34.987l-25.6,37.547c-1.707,2.56-1.707,6.827,0,9.387l25.6,37.547H434.627z"/>
			<path d="M153.027,383.427h34.133c5.12,0,8.533-3.413,8.533-8.533s-3.413-8.533-8.533-8.533h-34.133
				c-5.12,0-8.533,3.413-8.533,8.533S147.907,383.427,153.027,383.427z"/>
			<path d="M221.293,383.427h51.2c5.12,0,8.533-3.413,8.533-8.533s-3.413-8.533-8.533-8.533h-51.2c-5.12,0-8.533,3.413-8.533,8.533
				S216.173,383.427,221.293,383.427z"/>
			<path d="M229.827,400.493h-76.8c-5.12,0-8.533,3.413-8.533,8.533c0,5.12,3.413,8.533,8.533,8.533h76.8
				c5.12,0,8.533-3.413,8.533-8.533C238.36,403.907,234.947,400.493,229.827,400.493z"/>
			<path d="M357.827,400.493H340.76c-5.12,0-8.533,3.413-8.533,8.533c0,5.12,3.413,8.533,8.533,8.533h17.067
				c5.12,0,8.533-3.413,8.533-8.533C366.36,403.907,362.947,400.493,357.827,400.493z"/>
			<path d="M306.627,400.493H263.96c-5.12,0-8.533,3.413-8.533,8.533c0,5.12,3.413,8.533,8.533,8.533h42.667
				c5.12,0,8.533-3.413,8.533-8.533C315.16,403.907,311.747,400.493,306.627,400.493z"/>
			<path d="M357.827,366.36H315.16c-5.12,0-8.533,3.413-8.533,8.533s3.413,8.533,8.533,8.533h42.667c5.12,0,8.533-3.413,8.533-8.533
				S362.947,366.36,357.827,366.36z"/>
		</g>
	</g>
</g>
<g>
</g>
<g>
</g>
<g>
</g>
<g>
</g>
<g>
</g>
<g>
</g>
<g>
</g>
<g>
</g>
<g>
</g>
<g>
</g>
<g>
</g>
<g>
</g>
<g>
</g>
<g>
</g>
<g>
</g>
</svg>
